{
  "accessors": [
    {
      "bufferView": 2,
      "componentType": 5126,
      "count": 65533,
      "max": [
        0.6332963705062866,
        0.7696059346199036,
        1.8174865245819092
      ],
      "min": [
        -0.6332963705062866,
        0.0975511372089386,
        -1.352158784866333
      ],
      "type": "VEC3"
    },
    {
      "bufferView": 2,
      "byteOffset": 786396,
      "componentType": 5126,
      "count": 65533,
      "max": [
        1.0,
        1.0,
        1.0
      ],
      "min": [
        -1.0,
        -1.0,
        -0.9999999403953552
      ],
      "type": "VEC3"
    },
    {
      "bufferView": 3,
      "componentType": 5126,
      "count": 65533,
      "max": [
        1.0,
        1.0,
        1.0,
        1.0
      ],
      "min": [
        -1.0,
        -0.9999998211860657,
        -1.0,
        -1.0
      ],
      "type": "VEC4"
    },
    {
      "bufferView": 1,
      "componentType": 5126,
      "count": 65533,
      "max": [
        0.9979526996612549,
        0.9966362714767456
      ],
      "min": [
        0.002045372035354376,
        -0.3854040205478668
      ],
      "type": "VEC2"
    },
    {
      "bufferView": 1,
      "byteOffset": 524264,
      "componentType": 5126,
      "count": 65533,
      "max": [
        0.9979526996612549,
        0.9966362714767456
      ],
      "min": [
        0.002045372035354376,
        -0.3854040205478668
      ],
      "type": "VEC2"
    },
    {
      "bufferView": 1,
      "byteOffset": 1048528,
      "componentType": 5126,
      "count": 65533,
      "max": [
        0.9979526996612549,
        0.9966362714767456
      ],
      "min": [
        0.002045372035354376,
        -0.3854040205478668
      ],
      "type": "VEC2"
    },
    {
      "bufferView": 1,
      "byteOffset": 1572792,
      "componentType": 5126,
      "count": 65533,
      "max": [
        0.9979526996612549,
        0.9966362714767456
      ],
      "min": [
        0.002045372035354376,
        -0.3854040205478668
      ],
      "type": "VEC2"
    },
    {
      "bufferView": 0,
      "componentType": 5125,
      "count": 362748,
      "type": "SCALAR"
    },
    {
      "bufferView": 2,
      "byteOffset": 1572792,
      "componentType": 5126,
      "count": 65532,
      "max": [
        0.5260265469551086,
        0.8496736288070679,
        1.8135828971862793
      ],
      "min": [
        -0.5414971709251404,
        0.11707833409309387,
        -1.80937659740448
      ],
      "type": "VEC3"
    },
    {
      "bufferView": 2,
      "byteOffset": 2359176,
      "componentType": 5126,
      "count": 65532,
      "max": [
        1.0,
        1.0,
        1.0
      ],
      "min": [
        -1.0,
        -1.0,
        -1.0
      ],
      "type": "VEC3"
    },
    {
      "bufferView": 3,
      "byteOffset": 1048528,
      "componentType": 5126,
      "count": 65532,
      "max": [
        1.0,
        0.9999999403953552,
        0.9999991655349731,
        1.0
      ],
      "min": [
        -1.0,
        -0.9999922513961792,
        -1.0,
        -1.0
      ],
      "type": "VEC4"
    },
    {
      "bufferView": 1,
      "byteOffset": 2097056,
      "componentType": 5126,
      "count": 65532,
      "max": [
        0.9964846968650818,
        0.9918228387832642
      ],
      "min": [
        0.04093112051486969,
        0.002040867693722248
      ],
      "type": "VEC2"
    },
    {
      "bufferView": 1,
      "byteOffset": 2621312,
      "componentType": 5126,
      "count": 65532,
      "max": [
        0.9964846968650818,
        0.9918228387832642
      ],
      "min": [
        0.04093112051486969,
        0.002040867693722248
      ],
      "type": "VEC2"
    },
    {
      "bufferView": 1,
      "byteOffset": 3145568,
      "componentType": 5126,
      "count": 65532,
      "max": [
        0.9964846968650818,
        0.9918228387832642
      ],
      "min": [
        0.04093112051486969,
        0.002040867693722248
      ],
      "type": "VEC2"
    },
    {
      "bufferView": 1,
      "byteOffset": 3669824,
      "componentType": 5126,
      "count": 65532,
      "max": [
        0.9964846968650818,
        0.9918228387832642
      ],
      "min": [
        0.04093112051486969,
        0.002040867693722248
      ],
      "type": "VEC2"
    },
    {
      "bufferView": 0,
      "byteOffset": 1450992,
      "componentType": 5125,
      "count": 360948,
      "type": "SCALAR"
    },
    {
      "bufferView": 2,
      "byteOffset": 3145560,
      "componentType": 5126,
      "count": 65532,
      "max": [
        0.6933637261390686,
        0.7598143815994263,
        1.8166491985321045
      ],
      "min": [
        -0.6933637261390686,
        0.03103911690413952,
        -1.80937659740448
      ],
      "type": "VEC3"
    },
    {
      "bufferView": 2,
      "byteOffset": 3931944,
      "componentType": 5126,
      "count": 65532,
      "max": [
        1.0,
        1.0,
        1.0
      ],
      "min": [
        -1.0,
        -0.9999980330467224,
        -1.0
      ],
      "type": "VEC3"
    },
    {
      "bufferView": 3,
      "byteOffset": 2097040,
      "componentType": 5126,
      "count": 65532,
      "max": [
        1.0,
        0.999998927116394,
        0.9999980330467224,
        1.0
      ],
      "min": [
        -0.999999463558197,
        -0.9999968409538269,
        -0.9999993443489075,
        -1.0
      ],
      "type": "VEC4"
    },
    {
      "bufferView": 1,
      "byteOffset": 4194080,
      "componentType": 5126,
      "count": 65532,
      "max": [
        0.984363317489624,
        0.9867565035820007
      ],
      "min": [
        0.002269927179440856,
        0.0021145984064787626
      ],
      "type": "VEC2"
    },
    {
      "bufferView": 1,
      "byteOffset": 4718336,
      "componentType": 5126,
      "count": 65532,
      "max": [
        0.984363317489624,
        0.9867565035820007
      ],
      "min": [
        0.002269927179440856,
        0.0021145984064787626
      ],
      "type": "VEC2"
    },
    {
      "bufferView": 1,
      "byteOffset": 5242592,
      "componentType": 5126,
      "count": 65532,
      "max": [
        0.984363317489624,
        0.9867565035820007
      ],
      "min": [
        0.002269927179440856,
        0.0021145984064787626
      ],
      "type": "VEC2"
    },
    {
      "bufferView": 1,
      "byteOffset": 5766848,
      "componentType": 5126,
      "count": 65532,
      "max": [
        0.984363317489624,
        0.9867565035820007
      ],
      "min": [
        0.002269927179440856,
        0.0021145984064787626
      ],
      "type": "VEC2"
    },
    {
      "bufferView": 0,
      "byteOffset": 2894784,
      "componentType": 5125,
      "count": 366897,
      "type": "SCALAR"
    },
    {
      "bufferView": 2,
      "byteOffset": 4718328,
      "componentType": 5126,
      "count": 65532,
      "max": [
        0.6996873617172241,
        0.7598981261253357,
        1.8166491985321045
      ],
      "min": [
        -0.6933637261390686,
        0.03103911504149437,
        -1.8066431283950806
      ],
      "type": "VEC3"
    },
    {
      "bufferView": 2,
      "byteOffset": 5504712,
      "componentType": 5126,
      "count": 65532,
      "max": [
        1.0,
        1.0,
        1.0
      ],
      "min": [
        -1.0,
        -1.0,
        -1.0
      ],
      "type": "VEC3"
    },
    {
      "bufferView": 3,
      "byteOffset": 3145552,
      "componentType": 5126,
      "count": 65532,
      "max": [
        1.0,
        1.0,
        1.0,
        1.0
      ],
      "min": [
        -0.9999997019767761,
        -0.9999997615814209,
        -1.0,
        -1.0
      ],
      "type": "VEC4"
    },
    {
      "bufferView": 1,
      "byteOffset": 6291104,
      "componentType": 5126,
      "count": 65532,
      "max": [
        0.9897257089614868,
        0.9834619164466858
      ],
      "min": [
        0.0023921423126012087,
        0.0020431606099009514
      ],
      "type": "VEC2"
    },
    {
      "bufferView": 1,
      "byteOffset": 6815360,
      "componentType": 5126,
      "count": 65532,
      "max": [
        0.9897257089614868,
        0.9834619164466858
      ],
      "min": [
        0.0023921423126012087,
        0.0020431606099009514
      ],
      "type": "VEC2"
    },
    {
      "bufferView": 1,
      "byteOffset": 7339616,
      "componentType": 5126,
      "count": 65532,
      "max": [
        0.9897257089614868,
        0.9834619164466858
      ],
      "min": [
        0.0023921423126012087,
        0.0020431606099009514
      ],
      "type": "VEC2"
    },
    {
      "bufferView": 1,
      "byteOffset": 7863872,
      "componentType": 5126,
      "count": 65532,
      "max": [
        0.9897257089614868,
        0.9834619164466858
      ],
      "min": [
        0.0023921423126012087,
        0.0020431606099009514
      ],
      "type": "VEC2"
    },
    {
      "bufferView": 0,
      "byteOffset": 4362372,
      "componentType": 5125,
      "count": 360915,
      "type": "SCALAR"
    },
    {
      "bufferView": 2,
      "byteOffset": 6291096,
      "componentType": 5126,
      "count": 65532,
      "max": [
        0.6540837287902832,
        0.7263954877853394,
        1.5729707479476929
      ],
      "min": [
        -0.6650164127349854,
        0.033760081976652145,
        -1.865810513496399
      ],
      "type": "VEC3"
    },
    {
      "bufferView": 2,
      "byteOffset": 7077480,
      "componentType": 5126,
      "count": 65532,
      "max": [
        1.0,
        1.0,
        1.0
      ],
      "min": [
        -1.0,
        -1.0,
        -1.0
      ],
      "type": "VEC3"
    },
    {
      "bufferView": 3,
      "byteOffset": 4194064,
      "componentType": 5126,
      "count": 65532,
      "max": [
        1.0,
        0.9999971985816956,
        0.9999988675117493,
        1.0
      ],
      "min": [
        -1.0,
        -0.999995231628418,
        -0.9999998211860657,
        -1.0
      ],
      "type": "VEC4"
    },
    {
      "bufferView": 1,
      "byteOffset": 8388128,
      "componentType": 5126,
      "count": 65532,
      "max": [
        0.9978527426719666,
        0.9680085182189941
      ],
      "min": [
        0.002040188992395997,
        0.002041978994384408
      ],
      "type": "VEC2"
    },
    {
      "bufferView": 1,
      "byteOffset": 8912384,
      "componentType": 5126,
      "count": 65532,
      "max": [
        0.9978527426719666,
        0.9680085182189941
      ],
      "min": [
        0.002040188992395997,
        0.002041978994384408
      ],
      "type": "VEC2"
    },
    {
      "bufferView": 1,
      "byteOffset": 9436640,
      "componentType": 5126,
      "count": 65532,
      "max": [
        0.9978527426719666,
        0.9680085182189941
      ],
      "min": [
        0.002040188992395997,
        0.002041978994384408
      ],
      "type": "VEC2"
    },
    {
      "bufferView": 1,
      "byteOffset": 9960896,
      "componentType": 5126,
      "count": 65532,
      "max": [
        0.9978527426719666,
        0.9680085182189941
      ],
      "min": [
        0.002040188992395997,
        0.002041978994384408
      ],
      "type": "VEC2"
    },
    {
      "bufferView": 0,
      "byteOffset": 5806032,
      "componentType": 5125,
      "count": 367215,
      "type": "SCALAR"
    },
    {
      "bufferView": 2,
      "byteOffset": 7863864,
      "componentType": 5126,
      "count": 21481,
      "max": [
        0.44398030638694763,
        0.8576855063438416,
        0.48663565516471863
      ],
      "min": [
        -0.44398033618927,
        0.44780874252319336,
        -0.38534682989120483
      ],
      "type": "VEC3"
    },
    {
      "bufferView": 2,
      "byteOffset": 8121636,
      "componentType": 5126,
      "count": 21481,
      "max": [
        1.0,
        1.0,
        1.0
      ],
      "min": [
        -1.0,
        -0.9999986290931702,
        -1.0
      ],
      "type": "VEC3"
    },
    {
      "bufferView": 3,
      "byteOffset": 5242576,
      "componentType": 5126,
      "count": 21481,
      "max": [
        0.9999978542327881,
        0.999998927116394,
        0.9999992847442627,
        1.0
      ],
      "min": [
        -0.9999998211860657,
        -1.0,
        -1.0,
        -1.0
      ],
      "type": "VEC4"
    },
    {
      "bufferView": 1,
      "byteOffset": 10485152,
      "componentType": 5126,
      "count": 21481,
      "max": [
        0.9170365333557129,
        0.5629176497459412
      ],
      "min": [
        0.0020429762080311775,
        0.002038314938545227
      ],
      "type": "VEC2"
    },
    {
      "bufferView": 1,
      "byteOffset": 10657000,
      "componentType": 5126,
      "count": 21481,
      "max": [
        0.9170365333557129,
        0.5629176497459412
      ],
      "min": [
        0.0020429762080311775,
        0.002038314938545227
      ],
      "type": "VEC2"
    },
    {
      "bufferView": 1,
      "byteOffset": 10828848,
      "componentType": 5126,
      "count": 21481,
      "max": [
        0.9170365333557129,
        0.5629176497459412
      ],
      "min": [
        0.0020429762080311775,
        0.002038314938545227
      ],
      "type": "VEC2"
    },
    {
      "bufferView": 1,
      "byteOffset": 11000696,
      "componentType": 5126,
      "count": 21481,
      "max": [
        0.9170365333557129,
        0.5629176497459412
      ],
      "min": [
        0.0020429762080311775,
        0.002038314938545227
      ],
      "type": "VEC2"
    },
    {
      "bufferView": 0,
      "byteOffset": 7274892,
      "componentType": 5125,
      "count": 115485,
      "type": "SCALAR"
    }
  ],
  "asset": {
    "extras": {
      "author": "Redgrund (https://sketchfab.com/redgrund)",
      "license": "CC-BY-4.0 (http://creativecommons.org/licenses/by/4.0/)",
      "source": "https://sketchfab.com/3d-models/aston-martin-f1-amr23-2023-f6ba825a43b146a9b669934a4e1fd529",
      "title": "Aston Martin F1 AMR23 2023"
    },
    "generator": "Sketchfab-16.8.0",
    "version": "2.0"
  },
  "bufferViews": [
    {
      "buffer": 0,
      "byteLength": 7736832,
      "name": "floatBufferViews",
      "target": 34963
    },
    {
      "buffer": 0,
      "byteLength": 11172544,
      "byteOffset": 7736832,
      "byteStride": 8,
      "name": "floatBufferViews",
      "target": 34962
    },
    {
      "buffer": 0,
      "byteLength": 8379408,
      "byteOffset": 18909376,
      "byteStride": 12,
      "name": "floatBufferViews",
      "target": 34962
    },
    {
      "buffer": 0,
      "byteLength": 5586272,
      "byteOffset": 27288784,
      "byteStride": 16,
      "name": "floatBufferViews",
      "target": 34962
    }
  ],
  "buffers": [
    {
      "byteLength": 32875056,
      "uri": "scene.bin"
    }
  ],
  "extensionsUsed": [
    "KHR_materials_clearcoat",
    "KHR_materials_specular"
  ],
  "images": [
    {
      "uri": "textures/Body_Baked_baseColor.png"
    },
    {
      "uri": "textures/Body_Baked_metallicRoughness.png"
    },
    {
      "uri": "textures/Body_Baked_normal.png"
    },
    {
      "uri": "textures/Body_Baked_clearcoat.png"
    }
  ],
  "materials": [
    {
      "doubleSided": true,
      "extensions": {
        "KHR_materials_clearcoat": {
          "clearcoatFactor": 1.0,
          "clearcoatRoughnessFactor": 0.04,
          "clearcoatTexture": {
            "index": 3
          }
        },
        "KHR_materials_specular": {
          "specularColorFactor": [
            1.0,
            1.0,
            1.0
          ],
          "specularFactor": 0.5592397995879607
        }
      },
      "name": "Body_Baked",
      "normalTexture": {
        "index": 2,
        "texCoord": 2
      },
      "pbrMetallicRoughness": {
        "baseColorTexture": {
          "index": 0
        },
        "metallicRoughnessTexture": {
          "index": 1,
          "texCoord": 1
        },
        "roughnessFactor": 0.8640026331508819
      }
    }
  ],
  "meshes": [
    {
      "name": "Object_0",
      "primitives": [
        {
          "attributes": {
            "NORMAL": 1,
            "POSITION": 0,
            "TANGENT": 2,
            "TEXCOORD_0": 3,
            "TEXCOORD_1": 4,
            "TEXCOORD_2": 5,
            "TEXCOORD_3": 6
          },
          "indices": 7,
          "material": 0,
          "mode": 4
        }
      ]
    },
    {
      "name": "Object_1",
      "primitives": [
        {
          "attributes": {
            "NORMAL": 9,
            "POSITION": 8,
            "TANGENT": 10,
            "TEXCOORD_0": 11,
            "TEXCOORD_1": 12,
            "TEXCOORD_2": 13,
            "TEXCOORD_3": 14
          },
          "indices": 15,
          "material": 0,
          "mode": 4
        }
      ]
    },
    {
      "name": "Object_2",
      "primitives": [
        {
          "attributes": {
            "NORMAL": 17,
            "POSITION": 16,
            "TANGENT": 18,
            "TEXCOORD_0": 19,
            "TEXCOORD_1": 20,
            "TEXCOORD_2": 21,
            "TEXCOORD_3": 22
          },
          "indices": 23,
          "material": 0,
          "mode": 4
        }
      ]
    },
    {
      "name": "Object_3",
      "primitives": [
        {
          "attributes": {
            "NORMAL": 25,
            "POSITION": 24,
            "TANGENT": 26,
            "TEXCOORD_0": 27,
            "TEXCOORD_1": 28,
            "TEXCOORD_2": 29,
            "TEXCOORD_3": 30
          },
          "indices": 31,
          "material": 0,
          "mode": 4
        }
      ]
    },
    {
      "name": "Object_4",
      "primitives": [
        {
          "attributes": {
            "NORMAL": 33,
            "POSITION": 32,
            "TANGENT": 34,
            "TEXCOORD_0": 35,
            "TEXCOORD_1": 36,
            "TEXCOORD_2": 37,
            "TEXCOORD_3": 38
          },
          "indices": 39,
          "material": 0,
          "mode": 4
        }
      ]
    },
    {
      "name": "Object_5",
      "primitives": [
        {
          "attributes": {
            "NORMAL": 41,
            "POSITION": 40,
            "TANGENT": 42,
            "TEXCOORD_0": 43,
            "TEXCOORD_1": 44,
            "TEXCOORD_2": 45,
            "TEXCOORD_3": 46
          },
          "indices": 47,
          "material": 0,
          "mode": 4
        }
      ]
    }
  ],
  "nodes": [
    {
      "children": [
        1
      ],
      "matrix": [
        1.0,
        0.0,
        0.0,
        0.0,
        0.0,
        2.220446049250313e-16,
        -1.0,
        0.0,
        0.0,
        1.0,
        2.220446049250313e-16,
        0.0,
        0.0,
        0.0,
        0.0,
        1.0
      ],
      "name": "Sketchfab_model"
    },
    {
      "children": [
        2
      ],
      "name": "root"
    },
    {
      "children": [
        3
      ],
      "matrix": [
        1.0,
        0.0,
        0.0,
        0.0,
        0.0,
        2.220446049250313e-16,
        1.0,
        0.0,
        0.0,
        -1.0,
        2.220446049250313e-16,
        0.0,
        0.0,
        0.0,
        0.0,
        1.0
      ],
      "name": "GLTF_SceneRootNode"
    },
    {
      "children": [
        4,
        5,
        6,
        7,
        8,
        9
      ],
      "matrix": [
        1.0,
        0.0,
        0.0,
        0.0,
        0.0,
        1.0,
        0.0,
        0.0,
        0.0,
        0.0,
        1.0,
        0.0,
        0.0,
        -0.031497932970523834,
        0.37488463521003723,
        1.0
      ],
      "name": "Body_Baked_2"
    },
    {
      "mesh": 0,
      "name": "Object_4"
    },
    {
      "mesh": 1,
      "name": "Object_5"
    },
    {
      "mesh": 2,
      "name": "Object_6"
    },
    {
      "mesh": 3,
      "name": "Object_7"
    },
    {
      "mesh": 4,
      "name": "Object_8"
    },
    {
      "mesh": 5,
      "name": "Object_9"
    }
  ],
  "samplers": [
    {
      "magFilter": 9729,
      "minFilter": 9987,
      "wrapS": 10497,
      "wrapT": 10497
    }
  ],
  "scene": 0,
  "scenes": [
    {
      "name": "Sketchfab_Scene",
      "nodes": [
        0
      ]
    }
  ],
  "textures": [
    {
      "sampler": 0,
      "source": 0
    },
    {
      "sampler": 0,
      "source": 1
    },
    {
      "sampler": 0,
      "source": 2
    },
    {
      "sampler": 0,
      "source": 3
    }
  ]
}
